<mxfile host="Electron" modified="2024-04-15T06:44:50.831Z" agent="Mozilla/5.0 (X11; Linux x86_64) AppleWebKit/537.36 (KHTML, like Gecko) draw.io/24.0.4 Chrome/120.0.6099.109 Electron/28.1.0 Safari/537.36" etag="MJKWxVZqkqVumR1YNxEz" version="24.0.4" type="device" pages="10">
  <diagram id="7_C0xa3l1ptunwqtjRLV" name="Modèle Package Générique">
    <mxGraphModel dx="1707" dy="1700" grid="1" gridSize="10" guides="1" tooltips="1" connect="1" arrows="1" fold="1" page="1" pageScale="1" pageWidth="827" pageHeight="1169" math="0" shadow="0">
      <root>
        <mxCell id="0" />
        <mxCell id="1" parent="0" />
        <mxCell id="sOg6O2yOuiOM6pEQ7dvf-4" value="API Externes" style="shape=umlActor;verticalLabelPosition=bottom;verticalAlign=top;html=1;" parent="1" vertex="1">
          <mxGeometry x="1100" y="-690" width="30" height="60" as="geometry" />
        </mxCell>
        <mxCell id="lzjD5oIL5576dK8uw15z-1" value="" style="whiteSpace=wrap;html=1;labelBackgroundColor=default;" parent="1" vertex="1">
          <mxGeometry x="50" y="-920" width="910" height="650" as="geometry" />
        </mxCell>
        <mxCell id="lzjD5oIL5576dK8uw15z-2" value="" style="endArrow=none;html=1;entryX=0.996;entryY=0.31;entryDx=0;entryDy=0;entryPerimeter=0;exitX=0.5;exitY=0.5;exitDx=0;exitDy=0;exitPerimeter=0;startArrow=none;" parent="1" source="lzjD5oIL5576dK8uw15z-8" target="lzjD5oIL5576dK8uw15z-1" edge="1">
          <mxGeometry width="50" height="50" relative="1" as="geometry">
            <mxPoint x="495" y="-520" as="sourcePoint" />
            <mxPoint x="388" y="-424" as="targetPoint" />
          </mxGeometry>
        </mxCell>
        <mxCell id="lzjD5oIL5576dK8uw15z-3" value="&lt;span style=&quot;background-color: rgb(255, 255, 255);&quot;&gt;Plateforme de plannification des Voyages&lt;/span&gt;" style="rounded=0;labelBackgroundColor=none;labelBorderColor=none;fontColor=default;whiteSpace=wrap;html=1;" parent="1" vertex="1">
          <mxGeometry x="720" y="-920" width="240" height="30" as="geometry" />
        </mxCell>
        <object label="Voyageur" Malade="" id="lzjD5oIL5576dK8uw15z-4">
          <mxCell style="shape=umlActor;verticalLabelPosition=bottom;verticalAlign=top;html=1;outlineConnect=0;" parent="1" vertex="1">
            <mxGeometry x="-134" y="-930" width="30" height="60" as="geometry" />
          </mxCell>
        </object>
        <mxCell id="lzjD5oIL5576dK8uw15z-5" value="" style="endArrow=none;html=1;exitX=0.5;exitY=0.5;exitDx=0;exitDy=0;exitPerimeter=0;entryX=0.006;entryY=0.16;entryDx=0;entryDy=0;entryPerimeter=0;" parent="1" source="lzjD5oIL5576dK8uw15z-4" target="lzjD5oIL5576dK8uw15z-1" edge="1">
          <mxGeometry width="50" height="50" relative="1" as="geometry">
            <mxPoint x="90" y="-340" as="sourcePoint" />
            <mxPoint x="140" y="-390" as="targetPoint" />
          </mxGeometry>
        </mxCell>
        <mxCell id="lzjD5oIL5576dK8uw15z-6" value="Conducteur" style="shape=umlActor;verticalLabelPosition=bottom;verticalAlign=top;html=1;" parent="1" vertex="1">
          <mxGeometry x="-150" y="-730" width="30" height="60" as="geometry" />
        </mxCell>
        <mxCell id="lzjD5oIL5576dK8uw15z-7" value="" style="endArrow=none;html=1;entryX=-0.006;entryY=0.383;entryDx=0;entryDy=0;entryPerimeter=0;exitX=0.5;exitY=0.5;exitDx=0;exitDy=0;exitPerimeter=0;" parent="1" source="lzjD5oIL5576dK8uw15z-6" target="lzjD5oIL5576dK8uw15z-1" edge="1">
          <mxGeometry width="50" height="50" relative="1" as="geometry">
            <mxPoint y="-270" as="sourcePoint" />
            <mxPoint x="50" y="-320" as="targetPoint" />
          </mxGeometry>
        </mxCell>
        <mxCell id="lzjD5oIL5576dK8uw15z-8" value="Gouvernement" style="shape=umlActor;verticalLabelPosition=bottom;verticalAlign=top;html=1;" parent="1" vertex="1">
          <mxGeometry x="1110" y="-900" width="30" height="60" as="geometry" />
        </mxCell>
        <mxCell id="lzjD5oIL5576dK8uw15z-9" value="" style="endArrow=none;html=1;entryX=0.743;entryY=0.121;entryDx=0;entryDy=0;entryPerimeter=0;exitX=0.246;exitY=0.126;exitDx=0;exitDy=0;exitPerimeter=0;" parent="1" source="lzjD5oIL5576dK8uw15z-8" target="lzjD5oIL5576dK8uw15z-8" edge="1">
          <mxGeometry width="50" height="50" relative="1" as="geometry">
            <mxPoint x="835" y="-490" as="sourcePoint" />
            <mxPoint x="885" y="-540" as="targetPoint" />
          </mxGeometry>
        </mxCell>
        <mxCell id="lzjD5oIL5576dK8uw15z-10" value="Syndicat" style="shape=umlActor;verticalLabelPosition=bottom;verticalAlign=top;html=1;" parent="1" vertex="1">
          <mxGeometry x="1110" y="-445" width="30" height="60" as="geometry" />
        </mxCell>
        <mxCell id="lzjD5oIL5576dK8uw15z-12" value="Conducteur sans voiture" style="shape=umlActor;verticalLabelPosition=bottom;verticalAlign=top;html=1;" parent="1" vertex="1">
          <mxGeometry x="-250" y="-670" width="30" height="60" as="geometry" />
        </mxCell>
        <mxCell id="lzjD5oIL5576dK8uw15z-13" value="Conducteur avec voiture" style="shape=umlActor;verticalLabelPosition=bottom;verticalAlign=top;html=1;" parent="1" vertex="1">
          <mxGeometry x="-250" y="-770" width="30" height="60" as="geometry" />
        </mxCell>
        <object label="Voyageur sans voiture" Malade="" id="lzjD5oIL5576dK8uw15z-14">
          <mxCell style="shape=umlActor;verticalLabelPosition=bottom;verticalAlign=top;html=1;outlineConnect=0;" parent="1" vertex="1">
            <mxGeometry x="-244" y="-890" width="30" height="60" as="geometry" />
          </mxCell>
        </object>
        <object label="Voyageur avec voiture" Malade="" id="lzjD5oIL5576dK8uw15z-15">
          <mxCell style="shape=umlActor;verticalLabelPosition=bottom;verticalAlign=top;html=1;outlineConnect=0;" parent="1" vertex="1">
            <mxGeometry x="-244" y="-990" width="30" height="60" as="geometry" />
          </mxCell>
        </object>
        <mxCell id="lzjD5oIL5576dK8uw15z-16" value="" style="endArrow=open;endFill=1;endSize=12;html=1;entryX=0.5;entryY=0.5;entryDx=0;entryDy=0;entryPerimeter=0;exitX=0.5;exitY=0.5;exitDx=0;exitDy=0;exitPerimeter=0;" parent="1" source="lzjD5oIL5576dK8uw15z-15" target="lzjD5oIL5576dK8uw15z-4" edge="1">
          <mxGeometry width="160" relative="1" as="geometry">
            <mxPoint x="-184" y="-950" as="sourcePoint" />
            <mxPoint x="-91.88000000000011" y="-949.8259999999999" as="targetPoint" />
          </mxGeometry>
        </mxCell>
        <mxCell id="lzjD5oIL5576dK8uw15z-17" value="" style="endArrow=open;endFill=1;endSize=12;html=1;entryX=0.5;entryY=0.5;entryDx=0;entryDy=0;entryPerimeter=0;exitX=0.5;exitY=0.5;exitDx=0;exitDy=0;exitPerimeter=0;" parent="1" source="lzjD5oIL5576dK8uw15z-14" target="lzjD5oIL5576dK8uw15z-4" edge="1">
          <mxGeometry width="160" relative="1" as="geometry">
            <mxPoint x="-219" y="-950" as="sourcePoint" />
            <mxPoint x="-109" y="-890" as="targetPoint" />
          </mxGeometry>
        </mxCell>
        <mxCell id="lzjD5oIL5576dK8uw15z-18" value="" style="endArrow=open;endFill=1;endSize=12;html=1;entryX=0.5;entryY=0.5;entryDx=0;entryDy=0;entryPerimeter=0;exitX=0.5;exitY=0.5;exitDx=0;exitDy=0;exitPerimeter=0;" parent="1" source="lzjD5oIL5576dK8uw15z-13" target="lzjD5oIL5576dK8uw15z-6" edge="1">
          <mxGeometry width="160" relative="1" as="geometry">
            <mxPoint x="-235" y="-729.9999999999995" as="sourcePoint" />
            <mxPoint x="-105" y="-830" as="targetPoint" />
          </mxGeometry>
        </mxCell>
        <mxCell id="lzjD5oIL5576dK8uw15z-19" value="" style="endArrow=open;endFill=1;endSize=12;html=1;exitX=0.538;exitY=0.432;exitDx=0;exitDy=0;exitPerimeter=0;entryX=0.5;entryY=0.5;entryDx=0;entryDy=0;entryPerimeter=0;" parent="1" source="lzjD5oIL5576dK8uw15z-12" target="lzjD5oIL5576dK8uw15z-6" edge="1">
          <mxGeometry width="160" relative="1" as="geometry">
            <mxPoint x="-205" y="-880" as="sourcePoint" />
            <mxPoint x="-160" y="-660" as="targetPoint" />
          </mxGeometry>
        </mxCell>
        <mxCell id="lzjD5oIL5576dK8uw15z-20" value="Agences de voyage" style="shape=umlActor;verticalLabelPosition=bottom;verticalAlign=top;html=1;" parent="1" vertex="1">
          <mxGeometry x="-190" y="-580" width="30" height="60" as="geometry" />
        </mxCell>
        <mxCell id="lzjD5oIL5576dK8uw15z-21" value="" style="endArrow=none;html=1;entryX=-0.002;entryY=0.652;entryDx=0;entryDy=0;entryPerimeter=0;exitX=0.5;exitY=0.5;exitDx=0;exitDy=0;exitPerimeter=0;" parent="1" source="lzjD5oIL5576dK8uw15z-20" target="lzjD5oIL5576dK8uw15z-1" edge="1">
          <mxGeometry width="50" height="50" relative="1" as="geometry">
            <mxPoint x="-115" y="-320" as="sourcePoint" />
            <mxPoint x="88.32000000000016" y="-350.01300000000003" as="targetPoint" />
          </mxGeometry>
        </mxCell>
        <mxCell id="lzjD5oIL5576dK8uw15z-23" value="Agences de location de véhicules" style="shape=umlActor;verticalLabelPosition=bottom;verticalAlign=top;html=1;" parent="1" vertex="1">
          <mxGeometry x="-190" y="-365" width="30" height="60" as="geometry" />
        </mxCell>
        <mxCell id="lzjD5oIL5576dK8uw15z-26" value="" style="endArrow=none;html=1;entryX=1.002;entryY=0.579;entryDx=0;entryDy=0;entryPerimeter=0;startArrow=none;exitX=0.5;exitY=0.5;exitDx=0;exitDy=0;exitPerimeter=0;" parent="1" source="lzjD5oIL5576dK8uw15z-10" target="lzjD5oIL5576dK8uw15z-1" edge="1">
          <mxGeometry width="50" height="50" relative="1" as="geometry">
            <mxPoint x="1480" y="200" as="sourcePoint" />
            <mxPoint x="368.8800000000001" y="-378.4100000000001" as="targetPoint" />
          </mxGeometry>
        </mxCell>
        <mxCell id="lzjD5oIL5576dK8uw15z-27" value="Gestion des Utilisateurs" style="shape=folder;fontStyle=1;tabWidth=180;tabHeight=30;tabPosition=left;html=1;boundedLbl=1;labelInHeader=1;container=1;collapsible=0;" parent="1" vertex="1">
          <mxGeometry x="70" y="-880" width="400" height="80" as="geometry" />
        </mxCell>
        <mxCell id="lzjD5oIL5576dK8uw15z-28" value="" style="html=1;strokeColor=none;resizeWidth=1;resizeHeight=1;fillColor=none;part=1;connectable=0;allowArrows=0;deletable=0;" parent="lzjD5oIL5576dK8uw15z-27" vertex="1">
          <mxGeometry width="400" height="67.45098039215686" relative="1" as="geometry">
            <mxPoint y="30" as="offset" />
          </mxGeometry>
        </mxCell>
        <mxCell id="lzjD5oIL5576dK8uw15z-41" value="Gestion des Communications" style="shape=folder;fontStyle=1;tabWidth=180;tabHeight=30;tabPosition=left;html=1;boundedLbl=1;labelInHeader=1;container=1;collapsible=0;" parent="1" vertex="1">
          <mxGeometry x="490" y="-880" width="450" height="80" as="geometry" />
        </mxCell>
        <mxCell id="lzjD5oIL5576dK8uw15z-42" value="&lt;div style=&quot;&quot;&gt;&lt;br&gt;&lt;/div&gt;" style="html=1;strokeColor=none;resizeWidth=1;resizeHeight=1;fillColor=none;part=1;connectable=0;allowArrows=0;deletable=0;align=center;" parent="lzjD5oIL5576dK8uw15z-41" vertex="1">
          <mxGeometry width="450" height="55.99999999999999" relative="1" as="geometry">
            <mxPoint y="30" as="offset" />
          </mxGeometry>
        </mxCell>
        <mxCell id="lzjD5oIL5576dK8uw15z-43" value="Gestion de la Collecte des Voyageurs" style="shape=folder;fontStyle=1;tabWidth=220;tabHeight=27;tabPosition=left;html=1;boundedLbl=1;labelInHeader=1;container=1;collapsible=0;" parent="1" vertex="1">
          <mxGeometry x="70" y="-780" width="400" height="80" as="geometry" />
        </mxCell>
        <mxCell id="lzjD5oIL5576dK8uw15z-44" value="&lt;div style=&quot;&quot;&gt;&lt;br&gt;&lt;/div&gt;" style="html=1;strokeColor=none;resizeWidth=1;resizeHeight=1;fillColor=none;part=1;connectable=0;allowArrows=0;deletable=0;align=center;" parent="lzjD5oIL5576dK8uw15z-43" vertex="1">
          <mxGeometry width="400.00000000000006" height="56" relative="1" as="geometry">
            <mxPoint y="30" as="offset" />
          </mxGeometry>
        </mxCell>
        <mxCell id="lzjD5oIL5576dK8uw15z-45" value="Gestion de la plannification des voyages" style="shape=folder;fontStyle=1;tabWidth=270;tabHeight=31;tabPosition=left;html=1;boundedLbl=1;labelInHeader=1;container=1;collapsible=0;" parent="1" vertex="1">
          <mxGeometry x="70" y="-680" width="400" height="100" as="geometry" />
        </mxCell>
        <mxCell id="lzjD5oIL5576dK8uw15z-46" value="&lt;div style=&quot;&quot;&gt;&lt;br&gt;&lt;/div&gt;" style="html=1;strokeColor=none;resizeWidth=1;resizeHeight=1;fillColor=none;part=1;connectable=0;allowArrows=0;deletable=0;align=center;" parent="lzjD5oIL5576dK8uw15z-45" vertex="1">
          <mxGeometry width="389.1891891891892" height="69.99999999999999" relative="1" as="geometry">
            <mxPoint y="30" as="offset" />
          </mxGeometry>
        </mxCell>
        <mxCell id="lzjD5oIL5576dK8uw15z-51" value="Gestion des réservations de voyage" style="shape=folder;fontStyle=1;tabWidth=270;tabHeight=31;tabPosition=left;html=1;boundedLbl=1;labelInHeader=1;container=1;collapsible=0;" parent="1" vertex="1">
          <mxGeometry x="492" y="-680" width="448" height="100" as="geometry" />
        </mxCell>
        <mxCell id="lzjD5oIL5576dK8uw15z-52" value="&lt;div style=&quot;&quot;&gt;&lt;br&gt;&lt;/div&gt;" style="html=1;strokeColor=none;resizeWidth=1;resizeHeight=1;fillColor=none;part=1;connectable=0;allowArrows=0;deletable=0;align=center;" parent="lzjD5oIL5576dK8uw15z-51" vertex="1">
          <mxGeometry width="435.89189189189176" height="69.99999999999997" relative="1" as="geometry">
            <mxPoint y="30" as="offset" />
          </mxGeometry>
        </mxCell>
        <mxCell id="lzjD5oIL5576dK8uw15z-57" value="Gestion de la location des voitures" style="shape=folder;fontStyle=1;tabWidth=220;tabHeight=27;tabPosition=left;html=1;boundedLbl=1;labelInHeader=1;container=1;collapsible=0;" parent="1" vertex="1">
          <mxGeometry x="70" y="-552.99" width="400" height="92.99" as="geometry" />
        </mxCell>
        <mxCell id="lzjD5oIL5576dK8uw15z-58" value="&lt;div style=&quot;&quot;&gt;&lt;br&gt;&lt;/div&gt;" style="html=1;strokeColor=none;resizeWidth=1;resizeHeight=1;fillColor=none;part=1;connectable=0;allowArrows=0;deletable=0;align=center;" parent="lzjD5oIL5576dK8uw15z-57" vertex="1">
          <mxGeometry width="400.00000000000006" height="65.09299999999999" relative="1" as="geometry">
            <mxPoint y="30" as="offset" />
          </mxGeometry>
        </mxCell>
        <mxCell id="lzjD5oIL5576dK8uw15z-59" value="Gestion des Itinéraires et du suivi d&#39;un voyage" style="shape=folder;fontStyle=1;tabWidth=280;tabHeight=30;tabPosition=left;html=1;boundedLbl=1;labelInHeader=1;container=1;collapsible=0;" parent="1" vertex="1">
          <mxGeometry x="490" y="-785" width="450" height="85" as="geometry" />
        </mxCell>
        <mxCell id="lzjD5oIL5576dK8uw15z-60" value="&lt;div style=&quot;&quot;&gt;&lt;br&gt;&lt;/div&gt;" style="html=1;strokeColor=none;resizeWidth=1;resizeHeight=1;fillColor=none;part=1;connectable=0;allowArrows=0;deletable=0;align=center;" parent="lzjD5oIL5576dK8uw15z-59" vertex="1">
          <mxGeometry width="437.83783783783787" height="59.5" relative="1" as="geometry">
            <mxPoint y="30" as="offset" />
          </mxGeometry>
        </mxCell>
        <mxCell id="lzjD5oIL5576dK8uw15z-61" value="Gestion des intérmédiaires de voyage" style="shape=folder;fontStyle=1;tabWidth=270;tabHeight=31;tabPosition=left;html=1;boundedLbl=1;labelInHeader=1;container=1;collapsible=0;" parent="1" vertex="1">
          <mxGeometry x="492" y="-562" width="448" height="102" as="geometry" />
        </mxCell>
        <mxCell id="lzjD5oIL5576dK8uw15z-62" value="&lt;div style=&quot;&quot;&gt;&lt;br&gt;&lt;/div&gt;" style="html=1;strokeColor=none;resizeWidth=1;resizeHeight=1;fillColor=none;part=1;connectable=0;allowArrows=0;deletable=0;align=center;" parent="lzjD5oIL5576dK8uw15z-61" vertex="1">
          <mxGeometry width="435.8918918918918" height="71.39999999999998" relative="1" as="geometry">
            <mxPoint y="30" as="offset" />
          </mxGeometry>
        </mxCell>
        <mxCell id="lzjD5oIL5576dK8uw15z-69" value="Gestion de la sécurité" style="shape=folder;fontStyle=1;tabWidth=190;tabHeight=30;tabPosition=left;html=1;boundedLbl=1;labelInHeader=1;container=1;collapsible=0;" parent="1" vertex="1">
          <mxGeometry x="220" y="-445" width="500" height="105" as="geometry" />
        </mxCell>
        <mxCell id="lzjD5oIL5576dK8uw15z-70" value="&lt;div style=&quot;&quot;&gt;&lt;br&gt;&lt;/div&gt;" style="html=1;strokeColor=none;resizeWidth=1;resizeHeight=1;fillColor=none;part=1;connectable=0;allowArrows=0;deletable=0;align=center;" parent="lzjD5oIL5576dK8uw15z-69" vertex="1">
          <mxGeometry width="500" height="97.67441860465117" relative="1" as="geometry">
            <mxPoint y="30" as="offset" />
          </mxGeometry>
        </mxCell>
        <mxCell id="sOg6O2yOuiOM6pEQ7dvf-1" value="" style="endArrow=none;html=1;entryX=-0.007;entryY=0.801;entryDx=0;entryDy=0;entryPerimeter=0;" parent="1" source="lzjD5oIL5576dK8uw15z-23" target="lzjD5oIL5576dK8uw15z-1" edge="1">
          <mxGeometry width="50" height="50" relative="1" as="geometry">
            <mxPoint x="-295" y="-540" as="sourcePoint" />
            <mxPoint x="58" y="-486" as="targetPoint" />
          </mxGeometry>
        </mxCell>
        <mxCell id="sOg6O2yOuiOM6pEQ7dvf-2" value="" style="endArrow=none;html=1;entryX=0.999;entryY=0.445;entryDx=0;entryDy=0;entryPerimeter=0;exitX=0.568;exitY=0.428;exitDx=0;exitDy=0;exitPerimeter=0;startArrow=none;" parent="1" source="sOg6O2yOuiOM6pEQ7dvf-4" target="lzjD5oIL5576dK8uw15z-1" edge="1">
          <mxGeometry width="50" height="50" relative="1" as="geometry">
            <mxPoint x="1104" y="-660" as="sourcePoint" />
            <mxPoint x="960" y="-637" as="targetPoint" />
          </mxGeometry>
        </mxCell>
        <mxCell id="sOg6O2yOuiOM6pEQ7dvf-3" value="" style="endArrow=none;html=1;entryX=0.743;entryY=0.121;entryDx=0;entryDy=0;entryPerimeter=0;exitX=0.246;exitY=0.126;exitDx=0;exitDy=0;exitPerimeter=0;" parent="1" edge="1">
          <mxGeometry width="50" height="50" relative="1" as="geometry">
            <mxPoint x="1107.54" y="-680" as="sourcePoint" />
            <mxPoint x="1122.45" y="-680.3" as="targetPoint" />
          </mxGeometry>
        </mxCell>
        <mxCell id="sOg6O2yOuiOM6pEQ7dvf-6" value="" style="endArrow=none;html=1;entryX=0.71;entryY=0.124;entryDx=0;entryDy=0;entryPerimeter=0;exitX=0.287;exitY=0.131;exitDx=0;exitDy=0;exitPerimeter=0;" parent="1" source="lzjD5oIL5576dK8uw15z-10" target="lzjD5oIL5576dK8uw15z-10" edge="1">
          <mxGeometry width="50" height="50" relative="1" as="geometry">
            <mxPoint x="1157.55" y="-429.69999999999993" as="sourcePoint" />
            <mxPoint x="1172.46" y="-430" as="targetPoint" />
          </mxGeometry>
        </mxCell>
      </root>
    </mxGraphModel>
  </diagram>
  <diagram id="fDSpz4szXHU6pNgY5aDu" name="Package Gestion des Utilisateurs">
    <mxGraphModel dx="363" dy="439" grid="1" gridSize="10" guides="1" tooltips="1" connect="1" arrows="1" fold="1" page="1" pageScale="1" pageWidth="827" pageHeight="1169" math="0" shadow="0">
      <root>
        <mxCell id="0" />
        <mxCell id="1" parent="0" />
        <mxCell id="nYwtf9QWpGsIm8gjQy5q-1" value="Gestion des Utilisateurs" style="shape=folder;fontStyle=1;tabWidth=180;tabHeight=30;tabPosition=left;html=1;boundedLbl=1;labelInHeader=1;container=1;collapsible=0;" vertex="1" parent="1">
          <mxGeometry x="49" y="50" width="730" height="330" as="geometry" />
        </mxCell>
        <mxCell id="nYwtf9QWpGsIm8gjQy5q-2" value="" style="html=1;strokeColor=none;resizeWidth=1;resizeHeight=1;fillColor=none;part=1;connectable=0;allowArrows=0;deletable=0;" vertex="1" parent="nYwtf9QWpGsIm8gjQy5q-1">
          <mxGeometry width="730" height="278.2352941176471" relative="1" as="geometry">
            <mxPoint y="30" as="offset" />
          </mxGeometry>
        </mxCell>
        <mxCell id="nYwtf9QWpGsIm8gjQy5q-3" value="Gestion des Voyageurs" style="shape=folder;fontStyle=1;tabWidth=180;tabHeight=30;tabPosition=left;html=1;boundedLbl=1;labelInHeader=1;container=1;collapsible=0;" vertex="1" parent="nYwtf9QWpGsIm8gjQy5q-1">
          <mxGeometry x="20.28" y="40" width="319.72" height="80" as="geometry" />
        </mxCell>
        <mxCell id="nYwtf9QWpGsIm8gjQy5q-4" value="&lt;div style=&quot;&quot;&gt;&lt;span style=&quot;background-color: initial;&quot;&gt;- Gestion des voyageurs&lt;/span&gt;&lt;span style=&quot;background-color: initial;&quot;&gt;&amp;nbsp;avec voiture&lt;/span&gt;&lt;/div&gt;&lt;div style=&quot;&quot;&gt;&lt;span style=&quot;background-color: initial;&quot;&gt;- Gestion des&amp;nbsp;&lt;/span&gt;&lt;span style=&quot;&quot;&gt;voyageurs&lt;/span&gt;&lt;span style=&quot;background-color: initial;&quot;&gt;&amp;nbsp;sans voiture&lt;/span&gt;&lt;/div&gt;" style="html=1;strokeColor=none;resizeWidth=1;resizeHeight=1;fillColor=none;part=1;connectable=0;allowArrows=0;deletable=0;align=center;" vertex="1" parent="nYwtf9QWpGsIm8gjQy5q-3">
          <mxGeometry width="319.72" height="55.999999999999986" relative="1" as="geometry">
            <mxPoint y="30" as="offset" />
          </mxGeometry>
        </mxCell>
        <mxCell id="nYwtf9QWpGsIm8gjQy5q-5" value="Gestion des Conducteurs" style="shape=folder;fontStyle=1;tabWidth=180;tabHeight=30;tabPosition=left;html=1;boundedLbl=1;labelInHeader=1;container=1;collapsible=0;" vertex="1" parent="nYwtf9QWpGsIm8gjQy5q-1">
          <mxGeometry x="20.28" y="134.09" width="319.72" height="82.45" as="geometry" />
        </mxCell>
        <mxCell id="nYwtf9QWpGsIm8gjQy5q-6" value="&lt;div style=&quot;text-align: left;&quot;&gt;&lt;span style=&quot;background-color: initial;&quot;&gt;- Gestion des conducteurs avec voiture&lt;/span&gt;&lt;/div&gt;&lt;div style=&quot;text-align: left;&quot;&gt;&lt;span style=&quot;background-color: initial;&quot;&gt;- Gestion des conducteurs sans voiture&lt;/span&gt;&lt;/div&gt;" style="html=1;strokeColor=none;resizeWidth=1;resizeHeight=1;fillColor=none;part=1;connectable=0;allowArrows=0;deletable=0;" vertex="1" parent="nYwtf9QWpGsIm8gjQy5q-5">
          <mxGeometry width="319.71999999999997" height="57.71500000000002" relative="1" as="geometry">
            <mxPoint y="30" as="offset" />
          </mxGeometry>
        </mxCell>
        <mxCell id="nYwtf9QWpGsIm8gjQy5q-7" value="Gestion des Syndicats" style="shape=folder;fontStyle=1;tabWidth=150;tabHeight=30;tabPosition=left;html=1;boundedLbl=1;labelInHeader=1;container=1;collapsible=0;" vertex="1" parent="nYwtf9QWpGsIm8gjQy5q-1">
          <mxGeometry x="20.28" y="230" width="319.72" height="81.84" as="geometry" />
        </mxCell>
        <mxCell id="nYwtf9QWpGsIm8gjQy5q-8" value="&lt;div style=&quot;text-align: left;&quot;&gt;- Gestion de l&#39;identification des syndicats&lt;/div&gt;&lt;div style=&quot;text-align: left;&quot;&gt;- Gestion des liens entre Syndicats &amp;amp; Syndiqués&lt;/div&gt;" style="html=1;strokeColor=none;resizeWidth=1;resizeHeight=1;fillColor=none;part=1;connectable=0;allowArrows=0;deletable=0;" vertex="1" parent="nYwtf9QWpGsIm8gjQy5q-7">
          <mxGeometry width="339.7025" height="57.28800000000001" relative="1" as="geometry">
            <mxPoint y="30" as="offset" />
          </mxGeometry>
        </mxCell>
        <mxCell id="nYwtf9QWpGsIm8gjQy5q-9" value="Gestion des Agences de voyages" style="shape=folder;fontStyle=1;tabWidth=210;tabHeight=30;tabPosition=left;html=1;boundedLbl=1;labelInHeader=1;container=1;collapsible=0;" vertex="1" parent="nYwtf9QWpGsIm8gjQy5q-1">
          <mxGeometry x="360.28" y="40" width="350" height="80" as="geometry" />
        </mxCell>
        <mxCell id="nYwtf9QWpGsIm8gjQy5q-10" value="&lt;div style=&quot;text-align: left;&quot;&gt;- Gestion de l&#39;identification des agences de voyage&lt;/div&gt;&lt;div style=&quot;text-align: left;&quot;&gt;- Gestion de la collaboration avec les agences de voyage&lt;/div&gt;" style="html=1;strokeColor=none;resizeWidth=1;resizeHeight=1;fillColor=none;part=1;connectable=0;allowArrows=0;deletable=0;" vertex="1" parent="nYwtf9QWpGsIm8gjQy5q-9">
          <mxGeometry width="350" height="56.00000000000001" relative="1" as="geometry">
            <mxPoint y="30" as="offset" />
          </mxGeometry>
        </mxCell>
        <mxCell id="nYwtf9QWpGsIm8gjQy5q-11" value="Gestion de gouvernement" style="shape=folder;fontStyle=1;tabWidth=180;tabHeight=30;tabPosition=left;html=1;boundedLbl=1;labelInHeader=1;container=1;collapsible=0;" vertex="1" parent="nYwtf9QWpGsIm8gjQy5q-1">
          <mxGeometry x="360.28" y="134.09" width="349.72" height="82.45" as="geometry" />
        </mxCell>
        <mxCell id="nYwtf9QWpGsIm8gjQy5q-12" value="&lt;div style=&quot;text-align: left;&quot;&gt;- Gestion de l&#39;identification des agents du gouvernement&lt;/div&gt;&lt;div style=&quot;text-align: left;&quot;&gt;- Getion des échanges de données de mobilité et autres&lt;/div&gt;" style="html=1;strokeColor=none;resizeWidth=1;resizeHeight=1;fillColor=none;part=1;connectable=0;allowArrows=0;deletable=0;" vertex="1" parent="nYwtf9QWpGsIm8gjQy5q-11">
          <mxGeometry width="349.72" height="57.714999999999996" relative="1" as="geometry">
            <mxPoint y="30" as="offset" />
          </mxGeometry>
        </mxCell>
        <mxCell id="nYwtf9QWpGsIm8gjQy5q-13" value="Gestion des Agences de location" style="shape=folder;fontStyle=1;tabWidth=210;tabHeight=25;tabPosition=left;html=1;boundedLbl=1;labelInHeader=1;container=1;collapsible=0;" vertex="1" parent="nYwtf9QWpGsIm8gjQy5q-1">
          <mxGeometry x="360" y="230" width="350" height="85.3" as="geometry" />
        </mxCell>
        <mxCell id="nYwtf9QWpGsIm8gjQy5q-14" value="&lt;div style=&quot;text-align: left;&quot;&gt;&lt;div&gt;- Gestion de l&#39;identification des agences de location&lt;/div&gt;&lt;div&gt;- Getion de la collaboration (Contrats...) avec ces agences&lt;/div&gt;&lt;/div&gt;" style="html=1;strokeColor=none;resizeWidth=1;resizeHeight=1;fillColor=none;part=1;connectable=0;allowArrows=0;deletable=0;" vertex="1" parent="nYwtf9QWpGsIm8gjQy5q-13">
          <mxGeometry width="350" height="59.71" relative="1" as="geometry">
            <mxPoint y="30" as="offset" />
          </mxGeometry>
        </mxCell>
      </root>
    </mxGraphModel>
  </diagram>
  <diagram id="CCjT24_dsCu7uzjeiE8k" name="Package Gestion des Communications">
    <mxGraphModel dx="1707" dy="531" grid="1" gridSize="10" guides="1" tooltips="1" connect="1" arrows="1" fold="1" page="1" pageScale="1" pageWidth="827" pageHeight="1169" math="0" shadow="0">
      <root>
        <mxCell id="0" />
        <mxCell id="1" parent="0" />
        <mxCell id="HbwH9D_m0ehjSGYVuxon-1" value="Gestion des Communications" style="shape=folder;fontStyle=1;tabWidth=180;tabHeight=30;tabPosition=left;html=1;boundedLbl=1;labelInHeader=1;container=1;collapsible=0;" parent="1" vertex="1">
          <mxGeometry x="-790" y="80" width="760" height="180" as="geometry" />
        </mxCell>
        <mxCell id="HbwH9D_m0ehjSGYVuxon-2" value="&lt;div style=&quot;&quot;&gt;&lt;br&gt;&lt;/div&gt;" style="html=1;strokeColor=none;resizeWidth=1;resizeHeight=1;fillColor=none;part=1;connectable=0;allowArrows=0;deletable=0;align=center;" parent="HbwH9D_m0ehjSGYVuxon-1" vertex="1">
          <mxGeometry width="681.219512195122" height="125.99999999999999" relative="1" as="geometry">
            <mxPoint y="30" as="offset" />
          </mxGeometry>
        </mxCell>
        <mxCell id="HbwH9D_m0ehjSGYVuxon-3" value="Gestion des communications entre utilisateurs (Chat)" style="shape=folder;fontStyle=1;tabWidth=310;tabHeight=30;tabPosition=left;html=1;boundedLbl=1;labelInHeader=1;container=1;collapsible=0;" parent="HbwH9D_m0ehjSGYVuxon-1" vertex="1">
          <mxGeometry x="18.53658536585366" y="50" width="361.4634146341464" height="110" as="geometry" />
        </mxCell>
        <mxCell id="HbwH9D_m0ehjSGYVuxon-4" value="&lt;div style=&quot;&quot;&gt;- Gestion de la communication entre conducteurs et voyageurs&lt;/div&gt;&lt;div style=&quot;&quot;&gt;&amp;nbsp;- Gestion de la communication entre agences de locations&amp;nbsp;&lt;/div&gt;&lt;div style=&quot;&quot;&gt;&amp;nbsp; &amp;nbsp; et conducteurs/Voyageurs&lt;/div&gt;&lt;div style=&quot;&quot;&gt;- Gestion de la communication entre agences de voyages et voyageurs&lt;/div&gt;" style="html=1;strokeColor=none;resizeWidth=1;resizeHeight=1;fillColor=none;part=1;connectable=0;allowArrows=0;deletable=0;align=left;" parent="HbwH9D_m0ehjSGYVuxon-3" vertex="1">
          <mxGeometry width="361.4634146341464" height="76.99999999999999" relative="1" as="geometry">
            <mxPoint y="30" as="offset" />
          </mxGeometry>
        </mxCell>
        <mxCell id="HbwH9D_m0ehjSGYVuxon-5" value="Gestion du ChatBot" style="shape=folder;fontStyle=1;tabWidth=160;tabHeight=30;tabPosition=left;html=1;boundedLbl=1;labelInHeader=1;container=1;collapsible=0;" parent="HbwH9D_m0ehjSGYVuxon-1" vertex="1">
          <mxGeometry x="398.5365853658537" y="50" width="278.0487804878049" height="110" as="geometry" />
        </mxCell>
        <mxCell id="HbwH9D_m0ehjSGYVuxon-6" value="" style="html=1;strokeColor=none;resizeWidth=1;resizeHeight=1;fillColor=none;part=1;connectable=0;allowArrows=0;deletable=0;align=center;" parent="HbwH9D_m0ehjSGYVuxon-5" vertex="1">
          <mxGeometry width="278.0487804878049" height="76.99999999999999" relative="1" as="geometry">
            <mxPoint y="30" as="offset" />
          </mxGeometry>
        </mxCell>
      </root>
    </mxGraphModel>
  </diagram>
  <diagram id="x1mhNAVba59E2UTYPK7R" name="Package Gestion de la Collecte des Voyageurs">
    <mxGraphModel dx="1707" dy="531" grid="1" gridSize="10" guides="1" tooltips="1" connect="1" arrows="1" fold="1" page="1" pageScale="1" pageWidth="827" pageHeight="1169" math="0" shadow="0">
      <root>
        <mxCell id="0" />
        <mxCell id="1" parent="0" />
        <mxCell id="PSWpk4WdhvxDQcC7q4kM-1" value="Gestion de la Collecte" style="shape=folder;fontStyle=1;tabWidth=180;tabHeight=30;tabPosition=left;html=1;boundedLbl=1;labelInHeader=1;container=1;collapsible=0;" parent="1" vertex="1">
          <mxGeometry x="-703" y="80" width="580" height="150" as="geometry" />
        </mxCell>
        <mxCell id="PSWpk4WdhvxDQcC7q4kM-2" value="&lt;div style=&quot;&quot;&gt;&lt;br&gt;&lt;/div&gt;" style="html=1;strokeColor=none;resizeWidth=1;resizeHeight=1;fillColor=none;part=1;connectable=0;allowArrows=0;deletable=0;align=center;" parent="PSWpk4WdhvxDQcC7q4kM-1" vertex="1">
          <mxGeometry width="519.8780487804879" height="105" relative="1" as="geometry">
            <mxPoint y="30" as="offset" />
          </mxGeometry>
        </mxCell>
        <mxCell id="PSWpk4WdhvxDQcC7q4kM-3" value="Gestion des Conducteurs" style="shape=folder;fontStyle=1;tabWidth=151;tabHeight=30;tabPosition=left;html=1;boundedLbl=1;labelInHeader=1;container=1;collapsible=0;" parent="PSWpk4WdhvxDQcC7q4kM-1" vertex="1">
          <mxGeometry x="14.15" y="45.84" width="265.85" height="84.16" as="geometry" />
        </mxCell>
        <mxCell id="PSWpk4WdhvxDQcC7q4kM-4" value="&lt;div style=&quot;&quot;&gt;&lt;br&gt;&lt;/div&gt;" style="html=1;strokeColor=none;resizeWidth=1;resizeHeight=1;fillColor=none;part=1;connectable=0;allowArrows=0;deletable=0;align=left;" parent="PSWpk4WdhvxDQcC7q4kM-3" vertex="1">
          <mxGeometry width="265.85" height="58.91199999999999" relative="1" as="geometry">
            <mxPoint y="30" as="offset" />
          </mxGeometry>
        </mxCell>
        <mxCell id="PSWpk4WdhvxDQcC7q4kM-5" value="Gestion des Voyageurs" style="shape=folder;fontStyle=1;tabWidth=160;tabHeight=30;tabPosition=left;html=1;boundedLbl=1;labelInHeader=1;container=1;collapsible=0;" parent="PSWpk4WdhvxDQcC7q4kM-1" vertex="1">
          <mxGeometry x="300" y="45.84" width="263.68" height="84.16" as="geometry" />
        </mxCell>
        <mxCell id="PSWpk4WdhvxDQcC7q4kM-6" value="" style="html=1;strokeColor=none;resizeWidth=1;resizeHeight=1;fillColor=none;part=1;connectable=0;allowArrows=0;deletable=0;align=center;" parent="PSWpk4WdhvxDQcC7q4kM-5" vertex="1">
          <mxGeometry width="263.68" height="58.91199999999999" relative="1" as="geometry">
            <mxPoint y="30" as="offset" />
          </mxGeometry>
        </mxCell>
      </root>
    </mxGraphModel>
  </diagram>
  <diagram id="SMih58vm5NYoBiTxJiwY" name="Package Gestion de Gestion des Itinéraires &amp; Suivi d&#39;un Voyage">
    <mxGraphModel dx="1707" dy="531" grid="1" gridSize="10" guides="1" tooltips="1" connect="1" arrows="1" fold="1" page="1" pageScale="1" pageWidth="827" pageHeight="1169" math="0" shadow="0">
      <root>
        <mxCell id="0" />
        <mxCell id="1" parent="0" />
        <mxCell id="uMjhVNbwHYn3-fSTlogv-5" value="Gestion des titinéraires et du suivi d&#39;un voyage" style="shape=folder;fontStyle=1;tabWidth=280;tabHeight=30;tabPosition=left;html=1;boundedLbl=1;labelInHeader=1;container=1;collapsible=0;" parent="1" vertex="1">
          <mxGeometry x="-780" y="50" width="787" height="300" as="geometry" />
        </mxCell>
        <mxCell id="uMjhVNbwHYn3-fSTlogv-6" value="&lt;div style=&quot;&quot;&gt;&lt;br&gt;&lt;/div&gt;" style="html=1;strokeColor=none;resizeWidth=1;resizeHeight=1;fillColor=none;part=1;connectable=0;allowArrows=0;deletable=0;align=center;" parent="uMjhVNbwHYn3-fSTlogv-5" vertex="1">
          <mxGeometry width="739.4594594594594" height="210" relative="1" as="geometry">
            <mxPoint y="30" as="offset" />
          </mxGeometry>
        </mxCell>
        <mxCell id="uMjhVNbwHYn3-fSTlogv-7" value="Gestion des Itinéraires" style="shape=folder;fontStyle=1;tabWidth=280;tabHeight=30;tabPosition=left;html=1;boundedLbl=1;labelInHeader=1;container=1;collapsible=0;" parent="uMjhVNbwHYn3-fSTlogv-5" vertex="1">
          <mxGeometry x="20" y="170" width="330" height="110" as="geometry" />
        </mxCell>
        <mxCell id="uMjhVNbwHYn3-fSTlogv-8" value="&lt;div style=&quot;&quot;&gt;&lt;span style=&quot;white-space: pre;&quot;&gt;&#x9;&lt;/span&gt;- Calcul Intelligent et en temps réel d&#39;itinéraires&lt;/div&gt;&lt;div style=&quot;&quot;&gt;&lt;span style=&quot;white-space: pre;&quot;&gt;&#x9;&lt;/span&gt;- Gestion des réservations d&#39;itinéraires&lt;/div&gt;&lt;div style=&quot;&quot;&gt;&lt;span style=&quot;white-space: pre;&quot;&gt;&#x9;&lt;/span&gt;-&amp;nbsp;Partage d&#39;itinéraires&lt;/div&gt;&lt;div style=&quot;&quot;&gt;&lt;span style=&quot;white-space: pre;&quot;&gt;&#x9;&lt;/span&gt;-&amp;nbsp;Calcul des coùits de déplacement&lt;/div&gt;" style="html=1;strokeColor=none;resizeWidth=1;resizeHeight=1;fillColor=none;part=1;connectable=0;allowArrows=0;deletable=0;align=left;" parent="uMjhVNbwHYn3-fSTlogv-7" vertex="1">
          <mxGeometry width="321.0810810810811" height="77" relative="1" as="geometry">
            <mxPoint y="30" as="offset" />
          </mxGeometry>
        </mxCell>
        <mxCell id="uMjhVNbwHYn3-fSTlogv-11" value="Gestion des Statisitiques Générales de mobilité et IA" style="shape=folder;fontStyle=1;tabWidth=320;tabHeight=30;tabPosition=left;html=1;boundedLbl=1;labelInHeader=1;container=1;collapsible=0;" parent="uMjhVNbwHYn3-fSTlogv-5" vertex="1">
          <mxGeometry x="380" y="44.12" width="373" height="115.88" as="geometry" />
        </mxCell>
        <mxCell id="uMjhVNbwHYn3-fSTlogv-12" value="&lt;div style=&quot;&quot;&gt;&lt;div style=&quot;font-weight: 700; text-align: left;&quot;&gt;&lt;span style=&quot;font-weight: normal;&quot;&gt;&lt;span style=&quot;background-color: initial;&quot;&gt;- Mise sur pied des statistiques de mobilités&lt;/span&gt;&lt;br&gt;&lt;/span&gt;&lt;/div&gt;&lt;div style=&quot;font-weight: 700; text-align: left;&quot;&gt;&lt;span style=&quot;font-weight: normal;&quot;&gt;&lt;span style=&quot;&quot;&gt;&#x9;&lt;/span&gt;- Prédictions&lt;/span&gt;&lt;/div&gt;&lt;/div&gt;" style="html=1;strokeColor=none;resizeWidth=1;resizeHeight=1;fillColor=none;part=1;connectable=0;allowArrows=0;deletable=0;align=center;" parent="uMjhVNbwHYn3-fSTlogv-11" vertex="1">
          <mxGeometry width="362.9189189189189" height="81.116" relative="1" as="geometry">
            <mxPoint y="30" as="offset" />
          </mxGeometry>
        </mxCell>
        <mxCell id="uMjhVNbwHYn3-fSTlogv-9" value="Gestion de la Carte" style="shape=folder;fontStyle=1;tabWidth=170;tabHeight=30;tabPosition=left;html=1;boundedLbl=1;labelInHeader=1;container=1;collapsible=0;" parent="uMjhVNbwHYn3-fSTlogv-5" vertex="1">
          <mxGeometry x="380" y="180" width="370" height="100" as="geometry" />
        </mxCell>
        <mxCell id="uMjhVNbwHYn3-fSTlogv-10" value="&lt;div style=&quot;&quot;&gt;&lt;span style=&quot;white-space: pre;&quot;&gt;&#x9;&lt;/span&gt;- Définition des entités liées au graphe sous-jacent à la carte&lt;/div&gt;&lt;div style=&quot;&quot;&gt;&amp;nbsp;(Point, Route, Itinéraires)&lt;/div&gt;&lt;div style=&quot;&quot;&gt;&lt;span style=&quot;white-space: pre;&quot;&gt;&#x9;&lt;/span&gt;- Matérialisations des entités du graphe sur la carte&amp;nbsp;&lt;/div&gt;" style="html=1;strokeColor=none;resizeWidth=1;resizeHeight=1;fillColor=none;part=1;connectable=0;allowArrows=0;deletable=0;align=left;" parent="uMjhVNbwHYn3-fSTlogv-9" vertex="1">
          <mxGeometry width="360" height="70" relative="1" as="geometry">
            <mxPoint y="30" as="offset" />
          </mxGeometry>
        </mxCell>
        <mxCell id="yc123hE7rYLDwPabmYr3-1" value="Gestion des utilisateurs" style="shape=folder;fontStyle=1;tabWidth=280;tabHeight=30;tabPosition=left;html=1;boundedLbl=1;labelInHeader=1;container=1;collapsible=0;" parent="uMjhVNbwHYn3-fSTlogv-5" vertex="1">
          <mxGeometry x="20" y="47.06" width="330" height="110" as="geometry" />
        </mxCell>
        <mxCell id="yc123hE7rYLDwPabmYr3-2" value="&lt;div style=&quot;&quot;&gt;&lt;span style=&quot;white-space: pre;&quot;&gt;&#x9;&lt;/span&gt;- Définition des paramètres spécifiques de l&#39;utilisateur&amp;nbsp;&lt;/div&gt;&lt;div style=&quot;&quot;&gt;&lt;span style=&quot;white-space: pre;&quot;&gt;&#x9;&lt;/span&gt;(Position, préférence de mobilité..)&lt;/div&gt;&lt;div style=&quot;&quot;&gt;&lt;span style=&quot;white-space: pre;&quot;&gt;&#x9;&lt;/span&gt;- Définition des méthodes d&#39;interaction de l&#39;utilisateur&lt;br&gt;&lt;/div&gt;&lt;div style=&quot;&quot;&gt;&lt;span style=&quot;white-space: pre;&quot;&gt;&#x9;&lt;/span&gt;avec la carte et ses composants&amp;nbsp;&lt;/div&gt;" style="html=1;strokeColor=none;resizeWidth=1;resizeHeight=1;fillColor=none;part=1;connectable=0;allowArrows=0;deletable=0;align=left;" parent="yc123hE7rYLDwPabmYr3-1" vertex="1">
          <mxGeometry width="321.0810810810811" height="77" relative="1" as="geometry">
            <mxPoint y="30" as="offset" />
          </mxGeometry>
        </mxCell>
      </root>
    </mxGraphModel>
  </diagram>
  <diagram id="FAB45uNGPZkcEdLL_Ne0" name="Package Gestion de la Plannification des Voyages">
    <mxGraphModel dx="1707" dy="531" grid="1" gridSize="10" guides="1" tooltips="1" connect="1" arrows="1" fold="1" page="1" pageScale="1" pageWidth="827" pageHeight="1169" math="0" shadow="0">
      <root>
        <mxCell id="0" />
        <mxCell id="1" parent="0" />
        <mxCell id="7f9ounmnxZ6k7ys8BAt5-1" value="Gestion de la plannification des voyages" style="shape=folder;fontStyle=1;tabWidth=270;tabHeight=31;tabPosition=left;html=1;boundedLbl=1;labelInHeader=1;container=1;collapsible=0;" parent="1" vertex="1">
          <mxGeometry x="-786" y="60" width="745" height="220" as="geometry" />
        </mxCell>
        <mxCell id="7f9ounmnxZ6k7ys8BAt5-2" value="&lt;div style=&quot;&quot;&gt;&lt;br&gt;&lt;/div&gt;" style="html=1;strokeColor=none;resizeWidth=1;resizeHeight=1;fillColor=none;part=1;connectable=0;allowArrows=0;deletable=0;align=center;" parent="7f9ounmnxZ6k7ys8BAt5-1" vertex="1">
          <mxGeometry width="724.8648648648649" height="153.99999999999997" relative="1" as="geometry">
            <mxPoint y="30" as="offset" />
          </mxGeometry>
        </mxCell>
        <mxCell id="7f9ounmnxZ6k7ys8BAt5-3" value="Gestion des conducteurs" style="shape=folder;fontStyle=1;tabWidth=232;tabHeight=30;tabPosition=left;html=1;boundedLbl=1;labelInHeader=1;container=1;collapsible=0;" parent="7f9ounmnxZ6k7ys8BAt5-1" vertex="1">
          <mxGeometry x="191.29" y="130" width="362.43" height="80" as="geometry" />
        </mxCell>
        <mxCell id="7f9ounmnxZ6k7ys8BAt5-4" value="&lt;div style=&quot;&quot;&gt;&lt;span style=&quot;white-space: pre;&quot;&gt;&#x9;&lt;/span&gt;- Gestion de leur affiliation ou pas à une agence de transport&lt;/div&gt;&lt;div style=&quot;&quot;&gt;&lt;span style=&quot;white-space: pre;&quot;&gt;&#x9;&lt;/span&gt;- Gestion de leurs relations avec des syndicats&lt;/div&gt;" style="html=1;strokeColor=none;resizeWidth=1;resizeHeight=1;fillColor=none;part=1;connectable=0;allowArrows=0;deletable=0;align=left;" parent="7f9ounmnxZ6k7ys8BAt5-3" vertex="1">
          <mxGeometry width="362.43" height="56" relative="1" as="geometry">
            <mxPoint y="30" as="offset" />
          </mxGeometry>
        </mxCell>
        <mxCell id="7f9ounmnxZ6k7ys8BAt5-5" value="Gestion de la plannification des voyages inter-urbains" style="shape=folder;fontStyle=1;tabWidth=320;tabHeight=30;tabPosition=left;html=1;boundedLbl=1;labelInHeader=1;container=1;collapsible=0;" parent="7f9ounmnxZ6k7ys8BAt5-1" vertex="1">
          <mxGeometry x="370" y="41.43" width="365" height="78.57" as="geometry" />
        </mxCell>
        <mxCell id="7f9ounmnxZ6k7ys8BAt5-6" value="&lt;div style=&quot;&quot;&gt;&lt;div&gt;&lt;span style=&quot;white-space: pre;&quot;&gt;&#x9;&lt;/span&gt;- Gestion de l&#39;attribution d&#39;un voyage à un chauffeur&lt;/div&gt;&lt;div&gt;&lt;span style=&quot;white-space: pre;&quot;&gt;&#x9;&lt;/span&gt;- Gestion des factures de déplacements&amp;nbsp;&lt;/div&gt;&lt;/div&gt;" style="html=1;strokeColor=none;resizeWidth=1;resizeHeight=1;fillColor=none;part=1;connectable=0;allowArrows=0;deletable=0;align=left;" parent="7f9ounmnxZ6k7ys8BAt5-5" vertex="1">
          <mxGeometry width="365.00000000000006" height="54.999" relative="1" as="geometry">
            <mxPoint y="30" as="offset" />
          </mxGeometry>
        </mxCell>
        <mxCell id="b6ZDj7-MG_GPdQ9fGaLX-1" value="Gestion de la plannification des voyages urbains" style="shape=folder;fontStyle=1;tabWidth=290;tabHeight=30;tabPosition=left;html=1;boundedLbl=1;labelInHeader=1;container=1;collapsible=0;" parent="7f9ounmnxZ6k7ys8BAt5-1" vertex="1">
          <mxGeometry x="20" y="41.43" width="329.86" height="78.57" as="geometry" />
        </mxCell>
        <mxCell id="b6ZDj7-MG_GPdQ9fGaLX-2" value="&lt;div style=&quot;&quot;&gt;&lt;div style=&quot;text-align: left;&quot;&gt;- Gestion de l&#39;attribution d&#39;un voyage à un chauffeur&lt;/div&gt;&lt;div style=&quot;text-align: left;&quot;&gt;&lt;span style=&quot;&quot;&gt;&#x9;&lt;/span&gt;- Gestion des factures de déplacements&amp;nbsp;&lt;/div&gt;&lt;/div&gt;" style="html=1;strokeColor=none;resizeWidth=1;resizeHeight=1;fillColor=none;part=1;connectable=0;allowArrows=0;deletable=0;align=center;" parent="b6ZDj7-MG_GPdQ9fGaLX-1" vertex="1">
          <mxGeometry width="329.86" height="54.99899999999999" relative="1" as="geometry">
            <mxPoint y="30" as="offset" />
          </mxGeometry>
        </mxCell>
      </root>
    </mxGraphModel>
  </diagram>
  <diagram id="4EtlaeTOwv9tO2f1M4G4" name="Package Gestion des Réservations de Voyage">
    <mxGraphModel dx="2534" dy="1700" grid="1" gridSize="10" guides="1" tooltips="1" connect="1" arrows="1" fold="1" page="1" pageScale="1" pageWidth="827" pageHeight="1169" math="0" shadow="0">
      <root>
        <mxCell id="0" />
        <mxCell id="1" parent="0" />
        <mxCell id="r6lRaX_C9Vfx-4EYUbTo-1" value="Gestion des réservations de voyage" style="shape=folder;fontStyle=1;tabWidth=270;tabHeight=31;tabPosition=left;html=1;boundedLbl=1;labelInHeader=1;container=1;collapsible=0;" parent="1" vertex="1">
          <mxGeometry x="-1570" y="-1120" width="630" height="150" as="geometry" />
        </mxCell>
        <mxCell id="r6lRaX_C9Vfx-4EYUbTo-2" value="&lt;div style=&quot;&quot;&gt;&lt;br&gt;&lt;/div&gt;" style="html=1;strokeColor=none;resizeWidth=1;resizeHeight=1;fillColor=none;part=1;connectable=0;allowArrows=0;deletable=0;align=center;" parent="r6lRaX_C9Vfx-4EYUbTo-1" vertex="1">
          <mxGeometry width="612.9729729729728" height="104.99999999999997" relative="1" as="geometry">
            <mxPoint y="30" as="offset" />
          </mxGeometry>
        </mxCell>
        <mxCell id="r6lRaX_C9Vfx-4EYUbTo-3" value="Gestion de la recherche des voyages" style="shape=folder;fontStyle=1;tabWidth=290;tabHeight=30;tabPosition=left;html=1;boundedLbl=1;labelInHeader=1;container=1;collapsible=0;" parent="r6lRaX_C9Vfx-4EYUbTo-1" vertex="1">
          <mxGeometry x="16.8" y="48.4" width="268.5732" height="81.61" as="geometry" />
        </mxCell>
        <mxCell id="r6lRaX_C9Vfx-4EYUbTo-4" value="&lt;div style=&quot;&quot;&gt;&lt;br&gt;&lt;/div&gt;" style="html=1;strokeColor=none;resizeWidth=1;resizeHeight=1;fillColor=none;part=1;connectable=0;allowArrows=0;deletable=0;align=center;" parent="r6lRaX_C9Vfx-4EYUbTo-3" vertex="1">
          <mxGeometry width="268.5732" height="57.12699999999998" relative="1" as="geometry">
            <mxPoint y="30" as="offset" />
          </mxGeometry>
        </mxCell>
        <mxCell id="r6lRaX_C9Vfx-4EYUbTo-5" value="Gestion des évaluations des voyages" style="shape=folder;fontStyle=1;tabWidth=320;tabHeight=30;tabPosition=left;html=1;boundedLbl=1;labelInHeader=1;container=1;collapsible=0;" parent="r6lRaX_C9Vfx-4EYUbTo-1" vertex="1">
          <mxGeometry x="302.4" y="48.41" width="310.8" height="81.6" as="geometry" />
        </mxCell>
        <mxCell id="r6lRaX_C9Vfx-4EYUbTo-6" value="&lt;div style=&quot;&quot;&gt;&lt;br&gt;&lt;/div&gt;" style="html=1;strokeColor=none;resizeWidth=1;resizeHeight=1;fillColor=none;part=1;connectable=0;allowArrows=0;deletable=0;align=center;" parent="r6lRaX_C9Vfx-4EYUbTo-5" vertex="1">
          <mxGeometry width="310.8" height="57.11999999999998" relative="1" as="geometry">
            <mxPoint y="30" as="offset" />
          </mxGeometry>
        </mxCell>
      </root>
    </mxGraphModel>
  </diagram>
  <diagram id="R3lYF7e20oDAN5vpokP1" name="Package Gestion des Intermédiaires de Voyage">
    <mxGraphModel dx="880" dy="-638" grid="1" gridSize="10" guides="1" tooltips="1" connect="1" arrows="1" fold="1" page="1" pageScale="1" pageWidth="827" pageHeight="1169" math="0" shadow="0">
      <root>
        <mxCell id="0" />
        <mxCell id="1" parent="0" />
        <mxCell id="-wY5YogedrQvItSy4GGd-1" value="Gestion des intérmédiaires de voyage" style="shape=folder;fontStyle=1;tabWidth=270;tabHeight=31;tabPosition=left;html=1;boundedLbl=1;labelInHeader=1;container=1;collapsible=0;" parent="1" vertex="1">
          <mxGeometry x="39" y="1210" width="631" height="240" as="geometry" />
        </mxCell>
        <mxCell id="-wY5YogedrQvItSy4GGd-2" value="&lt;div style=&quot;&quot;&gt;&lt;br&gt;&lt;/div&gt;" style="html=1;strokeColor=none;resizeWidth=1;resizeHeight=1;fillColor=none;part=1;connectable=0;allowArrows=0;deletable=0;align=center;" parent="-wY5YogedrQvItSy4GGd-1" vertex="1">
          <mxGeometry width="613.9459459459458" height="167.99999999999997" relative="1" as="geometry">
            <mxPoint y="30" as="offset" />
          </mxGeometry>
        </mxCell>
        <mxCell id="-wY5YogedrQvItSy4GGd-3" value="Gestion du tourisme" style="shape=folder;fontStyle=1;tabWidth=290;tabHeight=30;tabPosition=left;html=1;boundedLbl=1;labelInHeader=1;container=1;collapsible=0;" parent="-wY5YogedrQvItSy4GGd-1" vertex="1">
          <mxGeometry x="16.826666666666668" y="40.829875518672196" width="268.99950666666666" height="88.63070539419087" as="geometry" />
        </mxCell>
        <mxCell id="-wY5YogedrQvItSy4GGd-4" value="&lt;div style=&quot;&quot;&gt;&lt;br&gt;&lt;/div&gt;" style="html=1;strokeColor=none;resizeWidth=1;resizeHeight=1;fillColor=none;part=1;connectable=0;allowArrows=0;deletable=0;align=center;" parent="-wY5YogedrQvItSy4GGd-3" vertex="1">
          <mxGeometry width="268.99950666666666" height="62.041493775933596" relative="1" as="geometry">
            <mxPoint y="30" as="offset" />
          </mxGeometry>
        </mxCell>
        <mxCell id="-wY5YogedrQvItSy4GGd-5" value="Gestion des restaurants" style="shape=folder;fontStyle=1;tabWidth=320;tabHeight=30;tabPosition=left;html=1;boundedLbl=1;labelInHeader=1;container=1;collapsible=0;" parent="-wY5YogedrQvItSy4GGd-1" vertex="1">
          <mxGeometry x="302.88" y="44.972614107883814" width="311.29333333333335" height="84.48796680497925" as="geometry" />
        </mxCell>
        <mxCell id="-wY5YogedrQvItSy4GGd-6" value="&lt;div style=&quot;&quot;&gt;&lt;br&gt;&lt;/div&gt;" style="html=1;strokeColor=none;resizeWidth=1;resizeHeight=1;fillColor=none;part=1;connectable=0;allowArrows=0;deletable=0;align=center;" parent="-wY5YogedrQvItSy4GGd-5" vertex="1">
          <mxGeometry width="311.29333333333335" height="59.141576763485475" relative="1" as="geometry">
            <mxPoint y="30" as="offset" />
          </mxGeometry>
        </mxCell>
        <mxCell id="-wY5YogedrQvItSy4GGd-7" value="Gestion des hotesl" style="shape=folder;fontStyle=1;tabWidth=290;tabHeight=30;tabPosition=left;html=1;boundedLbl=1;labelInHeader=1;container=1;collapsible=0;" parent="-wY5YogedrQvItSy4GGd-1" vertex="1">
          <mxGeometry x="16.826666666666668" y="146.49350649350652" width="268.99950666666666" height="80.35324675324676" as="geometry" />
        </mxCell>
        <mxCell id="-wY5YogedrQvItSy4GGd-8" value="&lt;div style=&quot;&quot;&gt;&lt;br&gt;&lt;/div&gt;" style="html=1;strokeColor=none;resizeWidth=1;resizeHeight=1;fillColor=none;part=1;connectable=0;allowArrows=0;deletable=0;align=center;" parent="-wY5YogedrQvItSy4GGd-7" vertex="1">
          <mxGeometry width="268.99950666666666" height="56.24727272727272" relative="1" as="geometry">
            <mxPoint y="30" as="offset" />
          </mxGeometry>
        </mxCell>
      </root>
    </mxGraphModel>
  </diagram>
  <diagram id="n4_qC8q90htTT4nqbNW8" name="Package Gestion de la location des Véhicules">
    <mxGraphModel dx="1707" dy="-638" grid="1" gridSize="10" guides="1" tooltips="1" connect="1" arrows="1" fold="1" page="1" pageScale="1" pageWidth="827" pageHeight="1169" math="0" shadow="0">
      <root>
        <mxCell id="0" />
        <mxCell id="1" parent="0" />
        <mxCell id="oePx5JEf8LZYdm96Kzwe-1" value="Gestion de la location des véhicules" style="shape=folder;fontStyle=1;tabWidth=220;tabHeight=27;tabPosition=left;html=1;boundedLbl=1;labelInHeader=1;container=1;collapsible=0;" parent="1" vertex="1">
          <mxGeometry x="-780" y="1220" width="380" height="210" as="geometry" />
        </mxCell>
        <mxCell id="oePx5JEf8LZYdm96Kzwe-2" value="&lt;div style=&quot;&quot;&gt;&lt;br&gt;&lt;/div&gt;" style="html=1;strokeColor=none;resizeWidth=1;resizeHeight=1;fillColor=none;part=1;connectable=0;allowArrows=0;deletable=0;align=center;" parent="oePx5JEf8LZYdm96Kzwe-1" vertex="1">
          <mxGeometry width="380.0000000000001" height="147" relative="1" as="geometry">
            <mxPoint y="30" as="offset" />
          </mxGeometry>
        </mxCell>
        <mxCell id="oePx5JEf8LZYdm96Kzwe-3" value="Gestion de l&#39;allocation des véhicules et leur suivi&amp;nbsp;" style="shape=folder;fontStyle=1;tabWidth=300;tabHeight=30;tabPosition=left;html=1;boundedLbl=1;labelInHeader=1;container=1;collapsible=0;" parent="oePx5JEf8LZYdm96Kzwe-1" vertex="1">
          <mxGeometry x="5.85" y="40" width="364.15" height="75.79" as="geometry" />
        </mxCell>
        <mxCell id="oePx5JEf8LZYdm96Kzwe-4" value="&lt;div style=&quot;&quot;&gt;&lt;br&gt;&lt;/div&gt;" style="html=1;strokeColor=none;resizeWidth=1;resizeHeight=1;fillColor=none;part=1;connectable=0;allowArrows=0;deletable=0;align=center;" parent="oePx5JEf8LZYdm96Kzwe-3" vertex="1">
          <mxGeometry width="364.15000000000003" height="53.053" relative="1" as="geometry">
            <mxPoint y="30" as="offset" />
          </mxGeometry>
        </mxCell>
        <mxCell id="oePx5JEf8LZYdm96Kzwe-5" value="Gestion des véhicules de location" style="shape=folder;fontStyle=1;tabWidth=220;tabHeight=27;tabPosition=left;html=1;boundedLbl=1;labelInHeader=1;container=1;collapsible=0;" parent="oePx5JEf8LZYdm96Kzwe-1" vertex="1">
          <mxGeometry x="5.85" y="130" width="364.15" height="70" as="geometry" />
        </mxCell>
        <mxCell id="oePx5JEf8LZYdm96Kzwe-6" value="&lt;div style=&quot;&quot;&gt;&lt;br&gt;&lt;/div&gt;" style="html=1;strokeColor=none;resizeWidth=1;resizeHeight=1;fillColor=none;part=1;connectable=0;allowArrows=0;deletable=0;align=center;" parent="oePx5JEf8LZYdm96Kzwe-5" vertex="1">
          <mxGeometry width="364.15000000000003" height="49.00000000000001" relative="1" as="geometry">
            <mxPoint y="30" as="offset" />
          </mxGeometry>
        </mxCell>
      </root>
    </mxGraphModel>
  </diagram>
  <diagram id="OW2-8LpW2WP9R9gHZ5kr" name="Package Gestion de la Sécurité">
    <mxGraphModel dx="3418" dy="-331" grid="1" gridSize="10" guides="1" tooltips="1" connect="1" arrows="1" fold="1" page="1" pageScale="1" pageWidth="827" pageHeight="1169" math="0" shadow="0">
      <root>
        <mxCell id="0" />
        <mxCell id="1" parent="0" />
        <mxCell id="4KuY4LDt74KC2M5TBRKD-1" value="Gestion de la sécurité" style="shape=folder;fontStyle=1;tabWidth=190;tabHeight=30;tabPosition=left;html=1;boundedLbl=1;labelInHeader=1;container=1;collapsible=0;" vertex="1" parent="1">
          <mxGeometry x="-1450" y="1230" width="440" height="230" as="geometry" />
        </mxCell>
        <mxCell id="4KuY4LDt74KC2M5TBRKD-2" value="&lt;div style=&quot;&quot;&gt;&lt;br&gt;&lt;/div&gt;" style="html=1;strokeColor=none;resizeWidth=1;resizeHeight=1;fillColor=none;part=1;connectable=0;allowArrows=0;deletable=0;align=center;" vertex="1" parent="4KuY4LDt74KC2M5TBRKD-1">
          <mxGeometry width="440" height="312.1428571428571" relative="1" as="geometry">
            <mxPoint y="30" as="offset" />
          </mxGeometry>
        </mxCell>
        <mxCell id="4KuY4LDt74KC2M5TBRKD-3" value="Gestion de la sécurité des données des utilisateurs de la plateforme" style="shape=folder;fontStyle=1;tabWidth=402;tabHeight=30;tabPosition=left;html=1;boundedLbl=1;labelInHeader=1;container=1;collapsible=0;" vertex="1" parent="4KuY4LDt74KC2M5TBRKD-1">
          <mxGeometry x="7.94" y="40" width="424.13" height="80" as="geometry" />
        </mxCell>
        <mxCell id="4KuY4LDt74KC2M5TBRKD-4" value="&lt;div style=&quot;&quot;&gt;&lt;br&gt;&lt;/div&gt;" style="html=1;strokeColor=none;resizeWidth=1;resizeHeight=1;fillColor=none;part=1;connectable=0;allowArrows=0;deletable=0;align=center;" vertex="1" parent="4KuY4LDt74KC2M5TBRKD-3">
          <mxGeometry width="424.13" height="55.99999999999997" relative="1" as="geometry">
            <mxPoint y="30" as="offset" />
          </mxGeometry>
        </mxCell>
        <mxCell id="4KuY4LDt74KC2M5TBRKD-5" value="&amp;nbsp; &amp;nbsp; &amp;nbsp;Gestion de la sécurité physique des conducteurs et voyageurs" style="shape=folder;fontStyle=1;tabWidth=380;tabHeight=30;tabPosition=left;html=1;boundedLbl=1;labelInHeader=1;container=1;collapsible=0;" vertex="1" parent="4KuY4LDt74KC2M5TBRKD-1">
          <mxGeometry x="10" y="130" width="420" height="86.59" as="geometry" />
        </mxCell>
        <mxCell id="4KuY4LDt74KC2M5TBRKD-6" value="&lt;div style=&quot;&quot;&gt;&lt;br&gt;&lt;/div&gt;" style="html=1;strokeColor=none;resizeWidth=1;resizeHeight=1;fillColor=none;part=1;connectable=0;allowArrows=0;deletable=0;align=center;" vertex="1" parent="4KuY4LDt74KC2M5TBRKD-5">
          <mxGeometry width="420" height="60.61300000000001" relative="1" as="geometry">
            <mxPoint y="30" as="offset" />
          </mxGeometry>
        </mxCell>
      </root>
    </mxGraphModel>
  </diagram>
</mxfile>
